<svg width="287" height="113" viewBox="0 0 287 113" fill="none" xmlns="http://www.w3.org/2000/svg">
<g filter="url(#filter0_d_10_17)">
<path d="M123 52V8H138.543C141.639 8 144.194 8.52995 146.205 9.58985C148.217 10.6354 149.715 12.0462 150.699 13.8223C151.683 15.584 152.175 17.5391 152.175 19.6875C152.175 21.5781 151.835 23.1393 151.155 24.3711C150.489 25.6029 149.606 26.5768 148.506 27.293C147.421 28.0091 146.241 28.5391 144.968 28.8828V29.3125C146.328 29.3984 147.696 29.8711 149.071 30.7305C150.445 31.5898 151.596 32.8216 152.522 34.4258C153.448 36.0299 153.911 37.9922 153.911 40.3125C153.911 42.5182 153.405 44.502 152.392 46.2637C151.379 48.0254 149.78 49.4219 147.595 50.4531C145.409 51.4844 142.566 52 139.063 52H123ZM128.383 47.2734H139.063C142.58 47.2734 145.076 46.6003 146.553 45.2539C148.043 43.8932 148.788 42.2461 148.788 40.3125C148.788 38.8229 148.405 37.4479 147.638 36.1875C146.871 34.9128 145.778 33.8958 144.36 33.1367C142.942 32.3633 141.263 31.9766 139.324 31.9766H128.383V47.2734ZM128.383 27.3359H138.369C139.99 27.3359 141.451 27.0208 142.754 26.3906C144.071 25.7604 145.113 24.8724 145.88 23.7266C146.661 22.5807 147.052 21.2344 147.052 19.6875C147.052 17.7539 146.372 16.1139 145.011 14.7676C143.651 13.4069 141.495 12.7266 138.543 12.7266H128.383V27.3359Z" fill="#F2F2F2"/>
<path d="M164.581 52H158.937L175.261 8H180.818L197.142 52H191.498L178.213 14.9609H177.866L164.581 52ZM166.664 34.8125H189.414V39.5391H166.664V34.8125Z" fill="#F2F2F2"/>
<path d="M239.319 8V52H234.109L209.884 17.4531H209.45V52H204.066V8H209.276L233.588 42.6328H234.023V8H239.319Z" fill="#F2F2F2"/>
<path d="M250.092 52V8H255.475V29.8281H255.996L275.967 8H283L264.332 27.8516L283 52H276.488L261.032 31.5469L255.475 37.7344V52H250.092Z" fill="#F2F2F2"/>
</g>
<g filter="url(#filter1_d_10_17)">
<path d="M137.395 80.2023C137.121 79.3655 136.761 78.6156 136.314 77.9527C135.874 77.2815 135.348 76.7098 134.735 76.2375C134.13 75.7652 133.442 75.4048 132.672 75.1562C131.901 74.9076 131.056 74.7833 130.136 74.7833C128.628 74.7833 127.257 75.1727 126.022 75.9516C124.788 76.7305 123.806 77.8781 123.077 79.3945C122.348 80.9108 121.983 82.771 121.983 84.9751C121.983 87.1791 122.352 89.0393 123.089 90.5557C123.827 92.072 124.825 93.2196 126.085 93.9985C127.344 94.7774 128.761 95.1668 130.335 95.1668C131.794 95.1668 133.078 94.8561 134.188 94.2347C135.307 93.6049 136.177 92.7183 136.798 91.5749C137.428 90.4231 137.743 89.0683 137.743 87.5106L138.688 87.7094H131.031V84.9751H140.726V87.7094C140.726 89.8058 140.278 91.6287 139.384 93.1782C138.497 94.7277 137.271 95.9291 135.705 96.7826C134.147 97.6278 132.357 98.0504 130.335 98.0504C128.081 98.0504 126.101 97.52 124.394 96.4594C122.696 95.3988 121.37 93.8908 120.417 91.9353C119.472 89.9798 119 87.6597 119 84.9751C119 82.9616 119.269 81.1511 119.808 79.5436C120.355 77.9278 121.125 76.5524 122.12 75.4172C123.114 74.282 124.291 73.412 125.65 72.8071C127.008 72.2022 128.504 71.8998 130.136 71.8998C131.479 71.8998 132.73 72.1028 133.89 72.5088C135.058 72.9065 136.098 73.4741 137.01 74.2116C137.929 74.9407 138.696 75.8149 139.309 76.8341C139.922 77.845 140.345 78.9677 140.577 80.2023H137.395Z" fill="#F2994A"/>
<path d="M146.263 97.7023H143.031L152.378 72.2478H155.56L164.906 97.7023H161.675L154.068 76.2748H153.869L146.263 97.7023ZM147.456 87.7592H160.482V90.4935H147.456V87.7592Z" fill="#F2994A"/>
<path d="M185.076 80.2023C184.802 79.3655 184.442 78.6156 183.994 77.9527C183.555 77.2815 183.029 76.7098 182.416 76.2375C181.811 75.7652 181.123 75.4048 180.353 75.1562C179.582 74.9076 178.737 74.7833 177.817 74.7833C176.309 74.7833 174.938 75.1727 173.703 75.9516C172.468 76.7305 171.487 77.8781 170.757 79.3945C170.028 80.9108 169.664 82.771 169.664 84.9751C169.664 87.1791 170.032 89.0393 170.77 90.5557C171.507 92.072 172.506 93.2196 173.765 93.9985C175.025 94.7774 176.442 95.1668 178.016 95.1668C179.474 95.1668 180.759 94.8561 181.869 94.2347C182.987 93.6049 183.858 92.7183 184.479 91.5749C185.109 90.4231 185.424 89.0683 185.424 87.5106L186.368 87.7094H178.712V84.9751H188.407V87.7094C188.407 89.8058 187.959 91.6287 187.064 93.1782C186.178 94.7277 184.951 95.9291 183.385 96.7826C181.827 97.6278 180.038 98.0504 178.016 98.0504C175.762 98.0504 173.782 97.52 172.075 96.4594C170.376 95.3988 169.05 93.8908 168.098 91.9353C167.153 89.9798 166.681 87.6597 166.681 84.9751C166.681 82.9616 166.95 81.1511 167.489 79.5436C168.035 77.9278 168.806 76.5524 169.8 75.4172C170.795 74.282 171.971 73.412 173.33 72.8071C174.689 72.2022 176.185 71.8998 177.817 71.8998C179.159 71.8998 180.411 72.1028 181.571 72.5088C182.739 72.9065 183.779 73.4741 184.69 74.2116C185.61 74.9407 186.376 75.8149 186.99 76.8341C187.603 77.845 188.025 78.9677 188.257 80.2023H185.076Z" fill="#F2994A"/>
<path d="M193.944 97.7023H190.712L200.059 72.2478H203.241L212.587 97.7023H209.356L201.749 76.2748H201.55L193.944 97.7023ZM195.137 87.7592H208.162V90.4935H195.137V87.7592Z" fill="#F2994A"/>
<path d="M230.472 78.6114C230.323 77.352 229.718 76.3742 228.658 75.6782C227.597 74.9822 226.296 74.6342 224.755 74.6342C223.628 74.6342 222.642 74.8164 221.797 75.181C220.96 75.5456 220.305 76.0469 219.833 76.6849C219.369 77.323 219.137 78.048 219.137 78.86C219.137 79.5395 219.299 80.1236 219.622 80.6125C219.953 81.0931 220.376 81.495 220.89 81.8181C221.403 82.133 221.942 82.394 222.505 82.6011C223.069 82.8 223.587 82.9616 224.059 83.0859L226.644 83.7819C227.307 83.9559 228.045 84.1962 228.857 84.5028C229.677 84.8093 230.46 85.2278 231.206 85.7581C231.96 86.2801 232.581 86.9513 233.07 87.7716C233.559 88.5919 233.803 89.5986 233.803 90.7918C233.803 92.1673 233.443 93.4102 232.722 94.5205C232.009 95.6308 230.965 96.5133 229.59 97.1679C228.223 97.8225 226.561 98.1498 224.606 98.1498C222.783 98.1498 221.205 97.8556 219.87 97.2673C218.545 96.679 217.501 95.8587 216.738 94.8064C215.984 93.7541 215.558 92.5319 215.458 91.1398H218.64C218.723 92.101 219.046 92.8965 219.609 93.5262C220.181 94.1476 220.902 94.6117 221.772 94.9182C222.65 95.2165 223.595 95.3657 224.606 95.3657C225.783 95.3657 226.839 95.1751 227.775 94.794C228.712 94.4045 229.453 93.8659 230 93.1782C230.547 92.4822 230.82 91.6701 230.82 90.7421C230.82 89.8969 230.584 89.2092 230.112 88.6789C229.64 88.1486 229.018 87.7177 228.248 87.3863C227.477 87.0548 226.644 86.7648 225.749 86.5163L222.617 85.6214C220.629 85.0496 219.054 84.2335 217.894 83.1729C216.734 82.1123 216.154 80.7244 216.154 79.0092C216.154 77.584 216.54 76.3411 217.31 75.2805C218.089 74.2116 219.133 73.383 220.442 72.7947C221.76 72.1981 223.23 71.8998 224.854 71.8998C226.495 71.8998 227.953 72.1939 229.229 72.7822C230.506 73.3623 231.516 74.1577 232.262 75.1686C233.016 76.1795 233.414 77.3271 233.455 78.6114H230.472Z" fill="#F2994A"/>
<path d="M239.915 97.7023H236.684L246.03 72.2478H249.212L258.559 97.7023H255.327L247.721 76.2748H247.522L239.915 97.7023ZM241.108 87.7592H254.134V90.4935H241.108V87.7592Z" fill="#F2994A"/>
<path d="M282.708 72.2478V97.7023H279.725L265.855 77.7165H265.606V97.7023H262.524V72.2478H265.507L279.427 92.2833H279.676V72.2478H282.708Z" fill="#F2994A"/>
</g>
<rect x="1" y="42.8998" width="83" height="81" rx="10" transform="rotate(-31.1222 1 42.8998)" fill="#2D9CDB"/>
<rect y="41.5364" width="59.2739" height="57.8457" rx="10" transform="rotate(-31.1222 0 41.5364)" fill="#F2F2F2"/>
<defs>
<filter id="filter0_d_10_17" x="119" y="8" width="168" height="52" filterUnits="userSpaceOnUse" color-interpolation-filters="sRGB">
<feFlood flood-opacity="0" result="BackgroundImageFix"/>
<feColorMatrix in="SourceAlpha" type="matrix" values="0 0 0 0 0 0 0 0 0 0 0 0 0 0 0 0 0 0 127 0" result="hardAlpha"/>
<feOffset dy="4"/>
<feGaussianBlur stdDeviation="2"/>
<feComposite in2="hardAlpha" operator="out"/>
<feColorMatrix type="matrix" values="0 0 0 0 0 0 0 0 0 0 0 0 0 0 0 0 0 0 0.25 0"/>
<feBlend mode="normal" in2="BackgroundImageFix" result="effect1_dropShadow_10_17"/>
<feBlend mode="normal" in="SourceGraphic" in2="effect1_dropShadow_10_17" result="shape"/>
</filter>
<filter id="filter1_d_10_17" x="115" y="71.8998" width="171.708" height="34.25" filterUnits="userSpaceOnUse" color-interpolation-filters="sRGB">
<feFlood flood-opacity="0" result="BackgroundImageFix"/>
<feColorMatrix in="SourceAlpha" type="matrix" values="0 0 0 0 0 0 0 0 0 0 0 0 0 0 0 0 0 0 127 0" result="hardAlpha"/>
<feOffset dy="4"/>
<feGaussianBlur stdDeviation="2"/>
<feComposite in2="hardAlpha" operator="out"/>
<feColorMatrix type="matrix" values="0 0 0 0 0 0 0 0 0 0 0 0 0 0 0 0 0 0 0.25 0"/>
<feBlend mode="normal" in2="BackgroundImageFix" result="effect1_dropShadow_10_17"/>
<feBlend mode="normal" in="SourceGraphic" in2="effect1_dropShadow_10_17" result="shape"/>
</filter>
</defs>
</svg>
