<svg width="124" height="106" viewBox="0 0 124 106" fill="none" xmlns="http://www.w3.org/2000/svg">
<rect width="124" height="106" fill="#FEFEFE"/>
<path d="M5.05682 14V5.27273H6.11364V9.60227H6.21591L10.1364 5.27273H11.517L7.85227 9.21023L11.517 14H10.2386L7.20455 9.94318L6.11364 11.1705V14H5.05682ZM15.0124 14.1364C14.3817 14.1364 13.8377 13.9972 13.3803 13.7188C12.9258 13.4375 12.5749 13.0455 12.3278 12.5426C12.0835 12.0369 11.9613 11.4489 11.9613 10.7784C11.9613 10.108 12.0835 9.51705 12.3278 9.00568C12.5749 8.49148 12.9187 8.09091 13.359 7.80398C13.8022 7.5142 14.3192 7.36932 14.9102 7.36932C15.2511 7.36932 15.5877 7.42614 15.9201 7.53977C16.2525 7.65341 16.555 7.83807 16.8278 8.09375C17.1005 8.34659 17.3178 8.68182 17.4798 9.09943C17.6417 9.51705 17.7227 10.0312 17.7227 10.642V11.0682H12.6772V10.1989H16.6999C16.6999 9.82955 16.6261 9.5 16.4783 9.21023C16.3335 8.92045 16.1261 8.69176 15.8562 8.52415C15.5891 8.35653 15.2738 8.27273 14.9102 8.27273C14.5096 8.27273 14.163 8.37216 13.8704 8.57102C13.5806 8.76705 13.3576 9.02273 13.2013 9.33807C13.0451 9.65341 12.967 9.99148 12.967 10.3523V10.9318C12.967 11.4261 13.0522 11.8452 13.2227 12.1889C13.396 12.5298 13.636 12.7898 13.9428 12.9688C14.2496 13.1449 14.6062 13.233 15.0124 13.233C15.2766 13.233 15.5153 13.196 15.7283 13.1222C15.9442 13.0455 16.1303 12.9318 16.2866 12.7812C16.4428 12.6278 16.5636 12.4375 16.6488 12.2102L17.6204 12.483C17.5181 12.8125 17.3462 13.1023 17.1048 13.3523C16.8633 13.5994 16.565 13.7926 16.2099 13.9318C15.8548 14.0682 15.4556 14.1364 15.0124 14.1364ZM22.0991 7.45455V8.30682H18.707V7.45455H22.0991ZM19.6957 5.88636H20.7013V12.125C20.7013 12.4091 20.7425 12.6222 20.8249 12.7642C20.9102 12.9034 21.0181 12.9972 21.1488 13.0455C21.2823 13.0909 21.4229 13.1136 21.5707 13.1136C21.6815 13.1136 21.7724 13.108 21.8434 13.0966C21.9144 13.0824 21.9712 13.071 22.0138 13.0625L22.2184 13.9659C22.1502 13.9915 22.055 14.017 21.9329 14.0426C21.8107 14.071 21.6559 14.0852 21.4684 14.0852C21.1843 14.0852 20.9059 14.0241 20.6332 13.902C20.3633 13.7798 20.1388 13.5938 19.9599 13.3438C19.7837 13.0938 19.6957 12.7784 19.6957 12.3977V5.88636ZM26.2859 14.1364C25.6552 14.1364 25.1112 13.9972 24.6538 13.7188C24.1992 13.4375 23.8484 13.0455 23.6012 12.5426C23.3569 12.0369 23.2347 11.4489 23.2347 10.7784C23.2347 10.108 23.3569 9.51705 23.6012 9.00568C23.8484 8.49148 24.1921 8.09091 24.6325 7.80398C25.0756 7.5142 25.5927 7.36932 26.1836 7.36932C26.5245 7.36932 26.8612 7.42614 27.1935 7.53977C27.5259 7.65341 27.8285 7.83807 28.1012 8.09375C28.3739 8.34659 28.5913 8.68182 28.7532 9.09943C28.9151 9.51705 28.9961 10.0312 28.9961 10.642V11.0682H23.9506V10.1989H27.9734C27.9734 9.82955 27.8995 9.5 27.7518 9.21023C27.6069 8.92045 27.3995 8.69176 27.1296 8.52415C26.8626 8.35653 26.5472 8.27273 26.1836 8.27273C25.783 8.27273 25.4364 8.37216 25.1438 8.57102C24.854 8.76705 24.631 9.02273 24.4748 9.33807C24.3185 9.65341 24.2404 9.99148 24.2404 10.3523V10.9318C24.2404 11.4261 24.3256 11.8452 24.4961 12.1889C24.6694 12.5298 24.9094 12.7898 25.2163 12.9688C25.5231 13.1449 25.8796 13.233 26.2859 13.233C26.5501 13.233 26.7887 13.196 27.0018 13.1222C27.2177 13.0455 27.4038 12.9318 27.56 12.7812C27.7163 12.6278 27.837 12.4375 27.9222 12.2102L28.8938 12.483C28.7915 12.8125 28.6197 13.1023 28.3782 13.3523C28.1367 13.5994 27.8384 13.7926 27.4833 13.9318C27.1282 14.0682 26.729 14.1364 26.2859 14.1364ZM30.5259 14V7.45455H31.4975V8.44318H31.5657C31.685 8.11932 31.9009 7.85653 32.2134 7.65483C32.5259 7.45312 32.8782 7.35227 33.2702 7.35227C33.3441 7.35227 33.4364 7.35369 33.5472 7.35653C33.658 7.35937 33.7418 7.36364 33.7987 7.36932V8.39205C33.7646 8.38352 33.6864 8.37074 33.5643 8.35369C33.445 8.33381 33.3185 8.32386 33.185 8.32386C32.8668 8.32386 32.5827 8.39062 32.3327 8.52415C32.0856 8.65483 31.8896 8.83665 31.7447 9.0696C31.6026 9.29972 31.5316 9.5625 31.5316 9.85795V14H30.5259ZM36.9169 14.1534C36.5021 14.1534 36.1257 14.0753 35.7876 13.919C35.4496 13.7599 35.1811 13.5312 34.9822 13.233C34.7834 12.9318 34.6839 12.5682 34.6839 12.142C34.6839 11.767 34.7578 11.4631 34.9055 11.2301C35.0533 10.9943 35.2507 10.8097 35.4979 10.6761C35.745 10.5426 36.0178 10.4432 36.3161 10.3778C36.6172 10.3097 36.9197 10.2557 37.2237 10.2159C37.6214 10.1648 37.9439 10.1264 38.1911 10.1009C38.4411 10.0724 38.6229 10.0256 38.7365 9.96023C38.853 9.89489 38.9112 9.78125 38.9112 9.61932V9.58523C38.9112 9.16477 38.7962 8.83807 38.5661 8.60511C38.3388 8.37216 37.9936 8.25568 37.5305 8.25568C37.0504 8.25568 36.674 8.3608 36.4013 8.57102C36.1286 8.78125 35.9368 9.00568 35.826 9.24432L34.8714 8.90341C35.0419 8.50568 35.2692 8.19602 35.5533 7.97443C35.8402 7.75 36.1527 7.59375 36.4908 7.50568C36.8317 7.41477 37.1669 7.36932 37.4964 7.36932C37.7067 7.36932 37.9482 7.39489 38.2209 7.44602C38.4964 7.49432 38.7621 7.59517 39.0178 7.74858C39.2763 7.90199 39.4908 8.13352 39.6612 8.44318C39.8317 8.75284 39.9169 9.16761 39.9169 9.6875V14H38.9112V13.1136H38.8601C38.7919 13.2557 38.6783 13.4077 38.5192 13.5696C38.3601 13.7315 38.1484 13.8693 37.8842 13.983C37.62 14.0966 37.2976 14.1534 36.9169 14.1534ZM37.0703 13.25C37.468 13.25 37.8033 13.1719 38.076 13.0156C38.3516 12.8594 38.5589 12.6577 38.6982 12.4105C38.8402 12.1634 38.9112 11.9034 38.9112 11.6307V10.7102C38.8686 10.7614 38.7749 10.8082 38.63 10.8509C38.4879 10.8906 38.3232 10.9261 38.1357 10.9574C37.951 10.9858 37.7706 11.0114 37.5945 11.0341C37.4212 11.054 37.2805 11.071 37.1726 11.0852C36.9112 11.1193 36.6669 11.1747 36.4396 11.2514C36.2152 11.3253 36.0334 11.4375 35.8942 11.5881C35.7578 11.7358 35.6896 11.9375 35.6896 12.1932C35.6896 12.5426 35.8189 12.8068 36.0774 12.9858C36.3388 13.1619 36.6697 13.25 37.0703 13.25ZM42.7582 10.0625V14H41.7525V7.45455H42.7241V8.47727H42.8093C42.9627 8.14489 43.1957 7.87784 43.5082 7.67614C43.8207 7.47159 44.2241 7.36932 44.7184 7.36932C45.1616 7.36932 45.5494 7.46023 45.8817 7.64205C46.2141 7.82102 46.4727 8.09375 46.6573 8.46023C46.842 8.82386 46.9343 9.28409 46.9343 9.84091V14H45.9286V9.90909C45.9286 9.39489 45.7951 8.99432 45.5281 8.70739C45.261 8.41761 44.8945 8.27273 44.4286 8.27273C44.1076 8.27273 43.8207 8.34233 43.5678 8.48153C43.3178 8.62074 43.1204 8.82386 42.9755 9.09091C42.8306 9.35795 42.7582 9.68182 42.7582 10.0625ZM51.4141 16.5909C50.9283 16.5909 50.5107 16.5284 50.1612 16.4034C49.8118 16.2812 49.5206 16.1193 49.2876 15.9176C49.0575 15.7188 48.8743 15.5057 48.7379 15.2784L49.5391 14.7159C49.63 14.8352 49.745 14.9716 49.8842 15.125C50.0234 15.2812 50.2138 15.4162 50.4553 15.5298C50.6996 15.6463 51.0192 15.7045 51.4141 15.7045C51.9425 15.7045 52.3786 15.5767 52.7223 15.321C53.0661 15.0653 53.2379 14.6648 53.2379 14.1193V12.7898H53.1527C53.0788 12.9091 52.9737 13.0568 52.8374 13.233C52.7038 13.4062 52.5107 13.5611 52.2578 13.6974C52.0078 13.831 51.6697 13.8977 51.2436 13.8977C50.7152 13.8977 50.2408 13.7727 49.8203 13.5227C49.4027 13.2727 49.0717 12.9091 48.8274 12.4318C48.5859 11.9545 48.4652 11.375 48.4652 10.6932C48.4652 10.0227 48.5831 9.43892 48.8189 8.94176C49.0547 8.44176 49.3828 8.0554 49.8033 7.78267C50.2237 7.5071 50.7095 7.36932 51.2607 7.36932C51.6868 7.36932 52.0249 7.44034 52.2749 7.58239C52.5277 7.72159 52.7209 7.88068 52.8544 8.05966C52.9908 8.2358 53.0959 8.38068 53.1697 8.49432H53.272V7.45455H54.2436V14.1875C54.2436 14.75 54.1158 15.2074 53.8601 15.5597C53.6072 15.9148 53.2663 16.1747 52.8374 16.3395C52.4112 16.5071 51.9368 16.5909 51.4141 16.5909ZM51.38 12.9943C51.7834 12.9943 52.1243 12.902 52.4027 12.7173C52.6811 12.5327 52.8928 12.267 53.0376 11.9205C53.1825 11.5739 53.255 11.1591 53.255 10.6761C53.255 10.2045 53.1839 9.78835 53.0419 9.42756C52.8999 9.06676 52.6896 8.78409 52.4112 8.57955C52.1328 8.375 51.7891 8.27273 51.38 8.27273C50.9538 8.27273 50.5987 8.38068 50.3146 8.59659C50.0334 8.8125 49.8217 9.10227 49.6797 9.46591C49.5405 9.82955 49.4709 10.233 49.4709 10.6761C49.4709 11.1307 49.5419 11.5327 49.6839 11.8821C49.8288 12.2287 50.0419 12.5014 50.3232 12.7003C50.6072 12.8963 50.9595 12.9943 51.38 12.9943ZM58.0107 14.1534C57.5959 14.1534 57.2195 14.0753 56.8814 13.919C56.5433 13.7599 56.2749 13.5312 56.076 13.233C55.8771 12.9318 55.7777 12.5682 55.7777 12.142C55.7777 11.767 55.8516 11.4631 55.9993 11.2301C56.147 10.9943 56.3445 10.8097 56.5916 10.6761C56.8388 10.5426 57.1115 10.4432 57.4098 10.3778C57.7109 10.3097 58.0135 10.2557 58.3175 10.2159C58.7152 10.1648 59.0376 10.1264 59.2848 10.1009C59.5348 10.0724 59.7166 10.0256 59.8303 9.96023C59.9467 9.89489 60.005 9.78125 60.005 9.61932V9.58523C60.005 9.16477 59.8899 8.83807 59.6598 8.60511C59.4325 8.37216 59.0874 8.25568 58.6243 8.25568C58.1442 8.25568 57.7678 8.3608 57.495 8.57102C57.2223 8.78125 57.0305 9.00568 56.9197 9.24432L55.9652 8.90341C56.1357 8.50568 56.3629 8.19602 56.647 7.97443C56.9339 7.75 57.2464 7.59375 57.5845 7.50568C57.9254 7.41477 58.2607 7.36932 58.5902 7.36932C58.8004 7.36932 59.0419 7.39489 59.3146 7.44602C59.5902 7.49432 59.8558 7.59517 60.1115 7.74858C60.37 7.90199 60.5845 8.13352 60.755 8.44318C60.9254 8.75284 61.0107 9.16761 61.0107 9.6875V14H60.005V13.1136H59.9538C59.8857 13.2557 59.772 13.4077 59.6129 13.5696C59.4538 13.7315 59.2422 13.8693 58.978 13.983C58.7138 14.0966 58.3913 14.1534 58.0107 14.1534ZM58.1641 13.25C58.5618 13.25 58.897 13.1719 59.1697 13.0156C59.4453 12.8594 59.6527 12.6577 59.7919 12.4105C59.9339 12.1634 60.005 11.9034 60.005 11.6307V10.7102C59.9624 10.7614 59.8686 10.8082 59.7237 10.8509C59.5817 10.8906 59.4169 10.9261 59.2294 10.9574C59.0447 10.9858 58.8643 11.0114 58.6882 11.0341C58.5149 11.054 58.3743 11.071 58.2663 11.0852C58.005 11.1193 57.7607 11.1747 57.5334 11.2514C57.3089 11.3253 57.1271 11.4375 56.9879 11.5881C56.8516 11.7358 56.7834 11.9375 56.7834 12.1932C56.7834 12.5426 56.9126 12.8068 57.1712 12.9858C57.4325 13.1619 57.7635 13.25 58.1641 13.25ZM63.8519 10.0625V14H62.8462V7.45455H63.8178V8.47727H63.9031C64.0565 8.14489 64.2894 7.87784 64.6019 7.67614C64.9144 7.47159 65.3178 7.36932 65.8121 7.36932C66.2553 7.36932 66.6431 7.46023 66.9755 7.64205C67.3079 7.82102 67.5664 8.09375 67.7511 8.46023C67.9357 8.82386 68.0281 9.28409 68.0281 9.84091V14H67.0224V9.90909C67.0224 9.39489 66.8888 8.99432 66.6218 8.70739C66.3548 8.41761 65.9883 8.27273 65.5224 8.27273C65.2013 8.27273 64.9144 8.34233 64.6616 8.48153C64.4116 8.62074 64.2141 8.82386 64.0692 9.09091C63.9244 9.35795 63.8519 9.68182 63.8519 10.0625Z" fill="black"/>
<path d="M26.75 33.1193C26.108 33.1193 25.5611 32.9446 25.1094 32.5952C24.6577 32.2429 24.3125 31.733 24.0739 31.0653C23.8352 30.3949 23.7159 29.5852 23.7159 28.6364C23.7159 27.6932 23.8352 26.8878 24.0739 26.2202C24.3153 25.5497 24.6619 25.0384 25.1136 24.6861C25.5682 24.331 26.1136 24.1534 26.75 24.1534C27.3864 24.1534 27.9304 24.331 28.3821 24.6861C28.8366 25.0384 29.1832 25.5497 29.4219 26.2202C29.6634 26.8878 29.7841 27.6932 29.7841 28.6364C29.7841 29.5852 29.6648 30.3949 29.4261 31.0653C29.1875 31.733 28.8423 32.2429 28.3906 32.5952C27.9389 32.9446 27.392 33.1193 26.75 33.1193ZM26.75 32.1818C27.3864 32.1818 27.8807 31.875 28.233 31.2614C28.5852 30.6477 28.7614 29.7727 28.7614 28.6364C28.7614 27.8807 28.6804 27.2372 28.5185 26.706C28.3594 26.1747 28.1293 25.7699 27.8281 25.4915C27.5298 25.2131 27.1705 25.0739 26.75 25.0739C26.1193 25.0739 25.6264 25.3849 25.2713 26.0071C24.9162 26.6264 24.7386 27.5028 24.7386 28.6364C24.7386 29.392 24.8182 30.0341 24.9773 30.5625C25.1364 31.0909 25.3651 31.4929 25.6634 31.7685C25.9645 32.044 26.3267 32.1818 26.75 32.1818ZM38.5455 28.1676V29.1051H34.7273V28.1676H38.5455ZM46.4002 33.1193C45.9002 33.1193 45.4499 33.0199 45.0494 32.821C44.6488 32.6222 44.3278 32.3494 44.0863 32.0028C43.8448 31.6562 43.7127 31.2614 43.69 30.8182H44.7127C44.7525 31.2131 44.9315 31.5398 45.2496 31.7983C45.5707 32.054 45.9542 32.1818 46.4002 32.1818C46.7582 32.1818 47.0763 32.098 47.3548 31.9304C47.636 31.7628 47.8562 31.5327 48.0153 31.2401C48.1772 30.9446 48.2582 30.6108 48.2582 30.2386C48.2582 29.858 48.1744 29.5185 48.0067 29.2202C47.842 28.919 47.6147 28.6818 47.3249 28.5085C47.0352 28.3352 46.7042 28.2472 46.332 28.2443C46.065 28.2415 45.7908 28.2827 45.5096 28.3679C45.2283 28.4503 44.9968 28.5568 44.815 28.6875L43.8263 28.5682L44.3548 24.2727H48.8888V25.2102H45.2411L44.9343 27.7841H44.9854C45.1644 27.642 45.3888 27.5241 45.6587 27.4304C45.9286 27.3366 46.2099 27.2898 46.5025 27.2898C47.0366 27.2898 47.5124 27.4176 47.93 27.6733C48.3505 27.9261 48.68 28.2727 48.9187 28.7131C49.1602 29.1534 49.2809 29.6562 49.2809 30.2216C49.2809 30.7784 49.1559 31.2756 48.9059 31.7131C48.6587 32.1477 48.3178 32.4915 47.8832 32.7443C47.4485 32.9943 46.9542 33.1193 46.4002 33.1193ZM51.2464 33L55.1499 25.2784V25.2102H50.6499V24.2727H56.2408V25.2614L52.3544 33H51.2464ZM56.9215 31.2102V30.3409L60.7567 24.2727H61.3874V25.6193H60.9613L58.0636 30.2045V30.2727H63.2283V31.2102H56.9215ZM61.0295 33V30.946V30.5412V24.2727H62.0352V33H61.0295ZM67.7763 24.2727V33H66.7195V25.3807H66.6683L64.5376 26.7955V25.7216L66.7195 24.2727H67.7763Z" fill="black"/>
<path d="M26.6307 49.1193C26.1307 49.1193 25.6804 49.0199 25.2798 48.821C24.8793 48.6222 24.5582 48.3494 24.3168 48.0028C24.0753 47.6562 23.9432 47.2614 23.9205 46.8182H24.9432C24.983 47.2131 25.1619 47.5398 25.4801 47.7983C25.8011 48.054 26.1847 48.1818 26.6307 48.1818C26.9886 48.1818 27.3068 48.098 27.5852 47.9304C27.8665 47.7628 28.0866 47.5327 28.2457 47.2401C28.4077 46.9446 28.4886 46.6108 28.4886 46.2386C28.4886 45.858 28.4048 45.5185 28.2372 45.2202C28.0724 44.919 27.8452 44.6818 27.5554 44.5085C27.2656 44.3352 26.9347 44.2472 26.5625 44.2443C26.2955 44.2415 26.0213 44.2827 25.7401 44.3679C25.4588 44.4503 25.2273 44.5568 25.0455 44.6875L24.0568 44.5682L24.5852 40.2727H29.1193V41.2102H25.4716L25.1648 43.7841H25.2159C25.3949 43.642 25.6193 43.5241 25.8892 43.4304C26.1591 43.3366 26.4403 43.2898 26.733 43.2898C27.267 43.2898 27.7429 43.4176 28.1605 43.6733C28.581 43.9261 28.9105 44.2727 29.1491 44.7131C29.3906 45.1534 29.5114 45.6562 29.5114 46.2216C29.5114 46.7784 29.3864 47.2756 29.1364 47.7131C28.8892 48.1477 28.5483 48.4915 28.1136 48.7443C27.679 48.9943 27.1847 49.1193 26.6307 49.1193ZM31.4769 49L35.3803 41.2784V41.2102H30.8803V40.2727H36.4712V41.2614L32.5849 49H31.4769ZM37.152 47.2102V46.3409L40.9872 40.2727H41.6179V41.6193H41.1918L38.294 46.2045V46.2727H43.4588V47.2102H37.152ZM41.2599 49V46.946V46.5412V40.2727H42.2656V49H41.2599ZM48.0067 40.2727V49H46.9499V41.3807H46.8988L44.7681 42.7955V41.7216L46.9499 40.2727H48.0067ZM57.6587 44.1676V45.1051H53.8406V44.1676H57.6587ZM65.8544 40.2727V49H64.7976V41.3807H64.7464L62.6158 42.7955V41.7216L64.7976 40.2727H65.8544ZM71.2109 49.1193C70.5689 49.1193 70.022 48.9446 69.5703 48.5952C69.1186 48.2429 68.7734 47.733 68.5348 47.0653C68.2962 46.3949 68.1768 45.5852 68.1768 44.6364C68.1768 43.6932 68.2962 42.8878 68.5348 42.2202C68.7763 41.5497 69.1229 41.0384 69.5746 40.6861C70.0291 40.331 70.5746 40.1534 71.2109 40.1534C71.8473 40.1534 72.3913 40.331 72.843 40.6861C73.2976 41.0384 73.6442 41.5497 73.8828 42.2202C74.1243 42.8878 74.245 43.6932 74.245 44.6364C74.245 45.5852 74.1257 46.3949 73.8871 47.0653C73.6484 47.733 73.3033 48.2429 72.8516 48.5952C72.3999 48.9446 71.853 49.1193 71.2109 49.1193ZM71.2109 48.1818C71.8473 48.1818 72.3416 47.875 72.6939 47.2614C73.0462 46.6477 73.2223 45.7727 73.2223 44.6364C73.2223 43.8807 73.1413 43.2372 72.9794 42.706C72.8203 42.1747 72.5902 41.7699 72.2891 41.4915C71.9908 41.2131 71.6314 41.0739 71.2109 41.0739C70.5803 41.0739 70.0874 41.3849 69.7322 42.0071C69.3771 42.6264 69.1996 43.5028 69.1996 44.6364C69.1996 45.392 69.2791 46.0341 69.4382 46.5625C69.5973 47.0909 69.826 47.4929 70.1243 47.7685C70.4254 48.044 70.7876 48.1818 71.2109 48.1818ZM78.6428 40.1534C79.0007 40.1562 79.3587 40.2244 79.7166 40.358C80.0746 40.4915 80.4013 40.7131 80.6967 41.0227C80.9922 41.3295 81.2294 41.7486 81.4084 42.2798C81.5874 42.8111 81.6768 43.4773 81.6768 44.2784C81.6768 45.054 81.603 45.7429 81.4553 46.3452C81.3104 46.9446 81.1001 47.4503 80.8246 47.8622C80.5518 48.2741 80.2195 48.5866 79.8274 48.7997C79.4382 49.0128 78.9979 49.1193 78.5064 49.1193C78.0178 49.1193 77.5817 49.0227 77.1982 48.8295C76.8175 48.6335 76.505 48.3622 76.2607 48.0156C76.0192 47.6662 75.8643 47.2614 75.7962 46.8011H76.8359C76.9297 47.2017 77.1158 47.5327 77.3942 47.794C77.6754 48.0526 78.0462 48.1818 78.5064 48.1818C79.1797 48.1818 79.7109 47.8878 80.1001 47.2997C80.4922 46.7116 80.6882 45.8807 80.6882 44.8068H80.62C80.4609 45.0455 80.272 45.2514 80.0533 45.4247C79.8345 45.598 79.5916 45.7315 79.3246 45.8253C79.0575 45.919 78.7734 45.9659 78.4723 45.9659C77.9723 45.9659 77.5135 45.8423 77.0959 45.5952C76.6811 45.3452 76.3487 45.0028 76.0987 44.5682C75.8516 44.1307 75.728 43.6307 75.728 43.0682C75.728 42.5341 75.8473 42.0455 76.0859 41.6023C76.3274 41.1562 76.6655 40.8011 77.1001 40.5369C77.5376 40.2727 78.0518 40.1449 78.6428 40.1534ZM78.6428 41.0909C78.2848 41.0909 77.9624 41.1804 77.6754 41.3594C77.3913 41.5355 77.1655 41.7741 76.9979 42.0753C76.8331 42.3736 76.7507 42.7045 76.7507 43.0682C76.7507 43.4318 76.8303 43.7628 76.9893 44.0611C77.1513 44.3565 77.3714 44.5923 77.6499 44.7685C77.9311 44.9418 78.2507 45.0284 78.6087 45.0284C78.8786 45.0284 79.13 44.9759 79.3629 44.8707C79.5959 44.7628 79.799 44.6165 79.9723 44.4318C80.1484 44.2443 80.2862 44.0327 80.3857 43.7969C80.4851 43.5582 80.5348 43.3097 80.5348 43.0511C80.5348 42.7102 80.4524 42.3906 80.2876 42.0923C80.1257 41.794 79.9013 41.5526 79.6143 41.3679C79.3303 41.1832 79.0064 41.0909 78.6428 41.0909ZM83.391 49L87.2944 41.2784V41.2102H82.7944V40.2727H88.3853V41.2614L84.4989 49H83.391ZM92.7234 49.1193C92.1609 49.1193 91.6594 49.0227 91.2191 48.8295C90.7816 48.6364 90.4336 48.3679 90.1751 48.0241C89.9194 47.6776 89.7802 47.2756 89.7575 46.8182H90.8313C90.854 47.0994 90.9506 47.3423 91.1211 47.5469C91.2915 47.7486 91.5146 47.9048 91.7901 48.0156C92.0657 48.1264 92.3711 48.1818 92.7063 48.1818C93.0813 48.1818 93.4137 48.1165 93.7035 47.9858C93.9933 47.8551 94.2205 47.6733 94.3853 47.4403C94.5501 47.2074 94.6325 46.9375 94.6325 46.6307C94.6325 46.3097 94.5529 46.027 94.3938 45.7827C94.2347 45.5355 94.0018 45.3423 93.695 45.2031C93.3881 45.0639 93.0131 44.9943 92.57 44.9943H91.8711V44.0568H92.57C92.9165 44.0568 93.2205 43.9943 93.4819 43.8693C93.7461 43.7443 93.9521 43.5682 94.0998 43.3409C94.2504 43.1136 94.3256 42.8466 94.3256 42.5398C94.3256 42.2443 94.2603 41.9872 94.1296 41.7685C93.9989 41.5497 93.8143 41.3793 93.5756 41.2571C93.3398 41.1349 93.0614 41.0739 92.7404 41.0739C92.4393 41.0739 92.1552 41.1293 91.8881 41.2401C91.6239 41.348 91.408 41.5057 91.2404 41.7131C91.0728 41.9176 90.9819 42.1648 90.9677 42.4545H89.945C89.962 41.9972 90.0998 41.5966 90.3583 41.2528C90.6168 40.9062 90.9549 40.6364 91.3725 40.4432C91.793 40.25 92.2546 40.1534 92.7575 40.1534C93.2972 40.1534 93.7603 40.2628 94.1467 40.4815C94.533 40.6974 94.8299 40.983 95.0373 41.3381C95.2447 41.6932 95.3484 42.0767 95.3484 42.4886C95.3484 42.9801 95.2191 43.3991 94.9606 43.7457C94.7049 44.0923 94.3569 44.3324 93.9165 44.4659V44.5341C94.4677 44.625 94.8981 44.8594 95.2077 45.2372C95.5174 45.6122 95.6722 46.0767 95.6722 46.6307C95.6722 47.1051 95.543 47.5312 95.2844 47.9091C95.0288 48.2841 94.6793 48.5795 94.2362 48.7955C93.793 49.0114 93.2887 49.1193 92.7234 49.1193Z" fill="black"/>
<path d="M26.9716 55.2727V64H25.9148V56.3807H25.8636L23.733 57.7955V56.7216L25.9148 55.2727H26.9716ZM32.3281 64.1193C31.6861 64.1193 31.1392 63.9446 30.6875 63.5952C30.2358 63.2429 29.8906 62.733 29.652 62.0653C29.4134 61.3949 29.294 60.5852 29.294 59.6364C29.294 58.6932 29.4134 57.8878 29.652 57.2202C29.8935 56.5497 30.2401 56.0384 30.6918 55.6861C31.1463 55.331 31.6918 55.1534 32.3281 55.1534C32.9645 55.1534 33.5085 55.331 33.9602 55.6861C34.4148 56.0384 34.7614 56.5497 35 57.2202C35.2415 57.8878 35.3622 58.6932 35.3622 59.6364C35.3622 60.5852 35.2429 61.3949 35.0043 62.0653C34.7656 62.733 34.4205 63.2429 33.9688 63.5952C33.517 63.9446 32.9702 64.1193 32.3281 64.1193ZM32.3281 63.1818C32.9645 63.1818 33.4588 62.875 33.8111 62.2614C34.1634 61.6477 34.3395 60.7727 34.3395 59.6364C34.3395 58.8807 34.2585 58.2372 34.0966 57.706C33.9375 57.1747 33.7074 56.7699 33.4062 56.4915C33.108 56.2131 32.7486 56.0739 32.3281 56.0739C31.6974 56.0739 31.2045 56.3849 30.8494 57.0071C30.4943 57.6264 30.3168 58.5028 30.3168 59.6364C30.3168 60.392 30.3963 61.0341 30.5554 61.5625C30.7145 62.0909 30.9432 62.4929 31.2415 62.7685C31.5426 63.044 31.9048 63.1818 32.3281 63.1818ZM39.7599 55.1534C40.1179 55.1562 40.4759 55.2244 40.8338 55.358C41.1918 55.4915 41.5185 55.7131 41.8139 56.0227C42.1094 56.3295 42.3466 56.7486 42.5256 57.2798C42.7045 57.8111 42.794 58.4773 42.794 59.2784C42.794 60.054 42.7202 60.7429 42.5724 61.3452C42.4276 61.9446 42.2173 62.4503 41.9418 62.8622C41.669 63.2741 41.3366 63.5866 40.9446 63.7997C40.5554 64.0128 40.1151 64.1193 39.6236 64.1193C39.1349 64.1193 38.6989 64.0227 38.3153 63.8295C37.9347 63.6335 37.6222 63.3622 37.3778 63.0156C37.1364 62.6662 36.9815 62.2614 36.9134 61.8011H37.9531C38.0469 62.2017 38.233 62.5327 38.5114 62.794C38.7926 63.0526 39.1634 63.1818 39.6236 63.1818C40.2969 63.1818 40.8281 62.8878 41.2173 62.2997C41.6094 61.7116 41.8054 60.8807 41.8054 59.8068H41.7372C41.5781 60.0455 41.3892 60.2514 41.1705 60.4247C40.9517 60.598 40.7088 60.7315 40.4418 60.8253C40.1747 60.919 39.8906 60.9659 39.5895 60.9659C39.0895 60.9659 38.6307 60.8423 38.2131 60.5952C37.7983 60.3452 37.4659 60.0028 37.2159 59.5682C36.9688 59.1307 36.8452 58.6307 36.8452 58.0682C36.8452 57.5341 36.9645 57.0455 37.2031 56.6023C37.4446 56.1562 37.7827 55.8011 38.2173 55.5369C38.6548 55.2727 39.169 55.1449 39.7599 55.1534ZM39.7599 56.0909C39.402 56.0909 39.0795 56.1804 38.7926 56.3594C38.5085 56.5355 38.2827 56.7741 38.1151 57.0753C37.9503 57.3736 37.8679 57.7045 37.8679 58.0682C37.8679 58.4318 37.9474 58.7628 38.1065 59.0611C38.2685 59.3565 38.4886 59.5923 38.767 59.7685C39.0483 59.9418 39.3679 60.0284 39.7259 60.0284C39.9957 60.0284 40.2472 59.9759 40.4801 59.8707C40.7131 59.7628 40.9162 59.6165 41.0895 59.4318C41.2656 59.2443 41.4034 59.0327 41.5028 58.7969C41.6023 58.5582 41.652 58.3097 41.652 58.0511C41.652 57.7102 41.5696 57.3906 41.4048 57.0923C41.2429 56.794 41.0185 56.5526 40.7315 56.3679C40.4474 56.1832 40.1236 56.0909 39.7599 56.0909ZM44.5082 64L48.4116 56.2784V56.2102H43.9116V55.2727H49.5025V56.2614L45.6161 64H44.5082ZM53.8406 64.1193C53.2781 64.1193 52.7766 64.0227 52.3363 63.8295C51.8988 63.6364 51.5508 63.3679 51.2923 63.0241C51.0366 62.6776 50.8974 62.2756 50.8746 61.8182H51.9485C51.9712 62.0994 52.0678 62.3423 52.2383 62.5469C52.4087 62.7486 52.6317 62.9048 52.9073 63.0156C53.1829 63.1264 53.4883 63.1818 53.8235 63.1818C54.1985 63.1818 54.5309 63.1165 54.8207 62.9858C55.1104 62.8551 55.3377 62.6733 55.5025 62.4403C55.6673 62.2074 55.7496 61.9375 55.7496 61.6307C55.7496 61.3097 55.6701 61.027 55.511 60.7827C55.3519 60.5355 55.119 60.3423 54.8121 60.2031C54.5053 60.0639 54.1303 59.9943 53.6871 59.9943H52.9883V59.0568H53.6871C54.0337 59.0568 54.3377 58.9943 54.5991 58.8693C54.8633 58.7443 55.0692 58.5682 55.217 58.3409C55.3675 58.1136 55.4428 57.8466 55.4428 57.5398C55.4428 57.2443 55.3775 56.9872 55.2468 56.7685C55.1161 56.5497 54.9315 56.3793 54.6928 56.2571C54.457 56.1349 54.1786 56.0739 53.8576 56.0739C53.5565 56.0739 53.2724 56.1293 53.0053 56.2401C52.7411 56.348 52.5252 56.5057 52.3576 56.7131C52.19 56.9176 52.0991 57.1648 52.0849 57.4545H51.0621C51.0792 56.9972 51.217 56.5966 51.4755 56.2528C51.734 55.9062 52.0721 55.6364 52.4897 55.4432C52.9102 55.25 53.3718 55.1534 53.8746 55.1534C54.4144 55.1534 54.8775 55.2628 55.2638 55.4815C55.6502 55.6974 55.9471 55.983 56.1545 56.3381C56.3619 56.6932 56.4656 57.0767 56.4656 57.4886C56.4656 57.9801 56.3363 58.3991 56.0778 58.7457C55.8221 59.0923 55.4741 59.3324 55.0337 59.4659V59.5341C55.5849 59.625 56.0153 59.8594 56.3249 60.2372C56.6346 60.6122 56.7894 61.0767 56.7894 61.6307C56.7894 62.1051 56.6602 62.5312 56.4016 62.9091C56.146 63.2841 55.7965 63.5795 55.3533 63.7955C54.9102 64.0114 54.4059 64.1193 53.8406 64.1193ZM65.6744 59.1676V60.1051H61.8562V59.1676H65.6744ZM73.87 55.2727V64H72.8132V56.3807H72.7621L70.6314 57.7955V56.7216L72.8132 55.2727H73.87ZM79.1584 55.1534C79.5163 55.1562 79.8743 55.2244 80.2322 55.358C80.5902 55.4915 80.9169 55.7131 81.2124 56.0227C81.5078 56.3295 81.745 56.7486 81.924 57.2798C82.103 57.8111 82.1925 58.4773 82.1925 59.2784C82.1925 60.054 82.1186 60.7429 81.9709 61.3452C81.826 61.9446 81.6158 62.4503 81.3402 62.8622C81.0675 63.2741 80.7351 63.5866 80.343 63.7997C79.9538 64.0128 79.5135 64.1193 79.022 64.1193C78.5334 64.1193 78.0973 64.0227 77.7138 63.8295C77.3331 63.6335 77.0206 63.3622 76.7763 63.0156C76.5348 62.6662 76.38 62.2614 76.3118 61.8011H77.3516C77.4453 62.2017 77.6314 62.5327 77.9098 62.794C78.1911 63.0526 78.5618 63.1818 79.022 63.1818C79.6953 63.1818 80.2266 62.8878 80.6158 62.2997C81.0078 61.7116 81.2038 60.8807 81.2038 59.8068H81.1357C80.9766 60.0455 80.7876 60.2514 80.5689 60.4247C80.3501 60.598 80.1072 60.7315 79.8402 60.8253C79.5732 60.919 79.2891 60.9659 78.9879 60.9659C78.4879 60.9659 78.0291 60.8423 77.6115 60.5952C77.1967 60.3452 76.8643 60.0028 76.6143 59.5682C76.3672 59.1307 76.2436 58.6307 76.2436 58.0682C76.2436 57.5341 76.3629 57.0455 76.6016 56.6023C76.843 56.1562 77.1811 55.8011 77.6158 55.5369C78.0533 55.2727 78.5675 55.1449 79.1584 55.1534ZM79.1584 56.0909C78.8004 56.0909 78.478 56.1804 78.1911 56.3594C77.907 56.5355 77.6811 56.7741 77.5135 57.0753C77.3487 57.3736 77.2663 57.7045 77.2663 58.0682C77.2663 58.4318 77.3459 58.7628 77.505 59.0611C77.6669 59.3565 77.8871 59.5923 78.1655 59.7685C78.4467 59.9418 78.7663 60.0284 79.1243 60.0284C79.3942 60.0284 79.6456 59.9759 79.8786 59.8707C80.1115 59.7628 80.3146 59.6165 80.4879 59.4318C80.6641 59.2443 80.8018 59.0327 80.9013 58.7969C81.0007 58.5582 81.0504 58.3097 81.0504 58.0511C81.0504 57.7102 80.968 57.3906 80.8033 57.0923C80.6413 56.794 80.4169 56.5526 80.13 56.3679C79.8459 56.1832 79.522 56.0909 79.1584 56.0909ZM86.6637 64.1193C86.0785 64.1193 85.5614 64.0156 85.1126 63.8082C84.6665 63.598 84.3185 63.3097 84.0685 62.9432C83.8185 62.5739 83.695 62.1534 83.6978 61.6818C83.695 61.3125 83.7674 60.9716 83.9151 60.6591C84.0629 60.3437 84.2646 60.081 84.5202 59.8707C84.7788 59.6577 85.0671 59.5227 85.3853 59.4659V59.4148C84.9677 59.3068 84.6353 59.0724 84.3881 58.7116C84.141 58.348 84.0188 57.9347 84.0217 57.4716C84.0188 57.0284 84.131 56.6321 84.3583 56.2827C84.5856 55.9332 84.8981 55.6577 85.2958 55.456C85.6964 55.2543 86.1523 55.1534 86.6637 55.1534C87.1694 55.1534 87.6211 55.2543 88.0188 55.456C88.4165 55.6577 88.729 55.9332 88.9563 56.2827C89.1864 56.6321 89.3029 57.0284 89.3058 57.4716C89.3029 57.9347 89.1765 58.348 88.9265 58.7116C88.6793 59.0724 88.3512 59.3068 87.9421 59.4148V59.4659C88.2575 59.5227 88.5415 59.6577 88.7944 59.8707C89.0472 60.081 89.2489 60.3437 89.3995 60.6591C89.5501 60.9716 89.6268 61.3125 89.6296 61.6818C89.6268 62.1534 89.4989 62.5739 89.2461 62.9432C88.9961 63.3097 88.6481 63.598 88.2021 63.8082C87.7589 64.0156 87.2461 64.1193 86.6637 64.1193ZM86.6637 63.1818C87.0586 63.1818 87.3995 63.1179 87.6864 62.9901C87.9734 62.8622 88.195 62.6818 88.3512 62.4489C88.5075 62.2159 88.587 61.9432 88.5898 61.6307C88.587 61.3011 88.5018 61.0099 88.3342 60.7571C88.1665 60.5043 87.9379 60.3054 87.6481 60.1605C87.3612 60.0156 87.033 59.9432 86.6637 59.9432C86.2915 59.9432 85.9592 60.0156 85.6665 60.1605C85.3768 60.3054 85.1481 60.5043 84.9805 60.7571C84.8157 61.0099 84.7347 61.3011 84.7376 61.6307C84.7347 61.9432 84.81 62.2159 84.9634 62.4489C85.1197 62.6818 85.3427 62.8622 85.6325 62.9901C85.9222 63.1179 86.266 63.1818 86.6637 63.1818ZM86.6637 59.0398C86.9762 59.0398 87.2532 58.9773 87.4947 58.8523C87.739 58.7273 87.9308 58.5526 88.07 58.3281C88.2092 58.1037 88.2802 57.8409 88.283 57.5398C88.2802 57.2443 88.2106 56.9872 88.0742 56.7685C87.9379 56.5469 87.7489 56.3764 87.5075 56.2571C87.266 56.1349 86.9847 56.0739 86.6637 56.0739C86.337 56.0739 86.0515 56.1349 85.8072 56.2571C85.5629 56.3764 85.3739 56.5469 85.2404 56.7685C85.1069 56.9872 85.0415 57.2443 85.0444 57.5398C85.0415 57.8409 85.1083 58.1037 85.2447 58.3281C85.3839 58.5526 85.5756 58.7273 85.82 58.8523C86.0643 58.9773 86.3455 59.0398 86.6637 59.0398ZM94.2116 64.1193C93.6491 64.1193 93.1477 64.0227 92.7074 63.8295C92.2699 63.6364 91.9219 63.3679 91.6634 63.0241C91.4077 62.6776 91.2685 62.2756 91.2457 61.8182H92.3196C92.3423 62.0994 92.4389 62.3423 92.6094 62.5469C92.7798 62.7486 93.0028 62.9048 93.2784 63.0156C93.554 63.1264 93.8594 63.1818 94.1946 63.1818C94.5696 63.1818 94.902 63.1165 95.1918 62.9858C95.4815 62.8551 95.7088 62.6733 95.8736 62.4403C96.0384 62.2074 96.1207 61.9375 96.1207 61.6307C96.1207 61.3097 96.0412 61.027 95.8821 60.7827C95.723 60.5355 95.4901 60.3423 95.1832 60.2031C94.8764 60.0639 94.5014 59.9943 94.0582 59.9943H93.3594V59.0568H94.0582C94.4048 59.0568 94.7088 58.9943 94.9702 58.8693C95.2344 58.7443 95.4403 58.5682 95.5881 58.3409C95.7386 58.1136 95.8139 57.8466 95.8139 57.5398C95.8139 57.2443 95.7486 56.9872 95.6179 56.7685C95.4872 56.5497 95.3026 56.3793 95.0639 56.2571C94.8281 56.1349 94.5497 56.0739 94.2287 56.0739C93.9276 56.0739 93.6435 56.1293 93.3764 56.2401C93.1122 56.348 92.8963 56.5057 92.7287 56.7131C92.5611 56.9176 92.4702 57.1648 92.456 57.4545H91.4332C91.4503 56.9972 91.5881 56.5966 91.8466 56.2528C92.1051 55.9062 92.4432 55.6364 92.8608 55.4432C93.2813 55.25 93.7429 55.1534 94.2457 55.1534C94.7855 55.1534 95.2486 55.2628 95.6349 55.4815C96.0213 55.6974 96.3182 55.983 96.5256 56.3381C96.733 56.6932 96.8366 57.0767 96.8366 57.4886C96.8366 57.9801 96.7074 58.3991 96.4489 58.7457C96.1932 59.0923 95.8452 59.3324 95.4048 59.4659V59.5341C95.956 59.625 96.3864 59.8594 96.696 60.2372C97.0057 60.6122 97.1605 61.0767 97.1605 61.6307C97.1605 62.1051 97.0313 62.5312 96.7727 62.9091C96.517 63.2841 96.1676 63.5795 95.7244 63.7955C95.2813 64.0114 94.777 64.1193 94.2116 64.1193ZM101.631 64.1193C101.131 64.1193 100.68 64.0199 100.28 63.821C99.8793 63.6222 99.5582 63.3494 99.3168 63.0028C99.0753 62.6562 98.9432 62.2614 98.9205 61.8182H99.9432C99.983 62.2131 100.162 62.5398 100.48 62.7983C100.801 63.054 101.185 63.1818 101.631 63.1818C101.989 63.1818 102.307 63.098 102.585 62.9304C102.866 62.7628 103.087 62.5327 103.246 62.2401C103.408 61.9446 103.489 61.6108 103.489 61.2386C103.489 60.858 103.405 60.5185 103.237 60.2202C103.072 59.919 102.845 59.6818 102.555 59.5085C102.266 59.3352 101.935 59.2472 101.562 59.2443C101.295 59.2415 101.021 59.2827 100.74 59.3679C100.459 59.4503 100.227 59.5568 100.045 59.6875L99.0568 59.5682L99.5852 55.2727H104.119V56.2102H100.472L100.165 58.7841H100.216C100.395 58.642 100.619 58.5241 100.889 58.4304C101.159 58.3366 101.44 58.2898 101.733 58.2898C102.267 58.2898 102.743 58.4176 103.161 58.6733C103.581 58.9261 103.911 59.2727 104.149 59.7131C104.391 60.1534 104.511 60.6562 104.511 61.2216C104.511 61.7784 104.386 62.2756 104.136 62.7131C103.889 63.1477 103.548 63.4915 103.114 63.7443C102.679 63.9943 102.185 64.1193 101.631 64.1193Z" fill="black"/>
<path d="M26.9716 72.2727V81H25.9148V73.3807H25.8636L23.733 74.7955V73.7216L25.9148 72.2727H26.9716ZM32.2599 72.1534C32.6179 72.1562 32.9759 72.2244 33.3338 72.358C33.6918 72.4915 34.0185 72.7131 34.3139 73.0227C34.6094 73.3295 34.8466 73.7486 35.0256 74.2798C35.2045 74.8111 35.294 75.4773 35.294 76.2784C35.294 77.054 35.2202 77.7429 35.0724 78.3452C34.9276 78.9446 34.7173 79.4503 34.4418 79.8622C34.169 80.2741 33.8366 80.5866 33.4446 80.7997C33.0554 81.0128 32.6151 81.1193 32.1236 81.1193C31.6349 81.1193 31.1989 81.0227 30.8153 80.8295C30.4347 80.6335 30.1222 80.3622 29.8778 80.0156C29.6364 79.6662 29.4815 79.2614 29.4134 78.8011H30.4531C30.5469 79.2017 30.733 79.5327 31.0114 79.794C31.2926 80.0526 31.6634 80.1818 32.1236 80.1818C32.7969 80.1818 33.3281 79.8878 33.7173 79.2997C34.1094 78.7116 34.3054 77.8807 34.3054 76.8068H34.2372C34.0781 77.0455 33.8892 77.2514 33.6705 77.4247C33.4517 77.598 33.2088 77.7315 32.9418 77.8253C32.6747 77.919 32.3906 77.9659 32.0895 77.9659C31.5895 77.9659 31.1307 77.8423 30.7131 77.5952C30.2983 77.3452 29.9659 77.0028 29.7159 76.5682C29.4688 76.1307 29.3452 75.6307 29.3452 75.0682C29.3452 74.5341 29.4645 74.0455 29.7031 73.6023C29.9446 73.1562 30.2827 72.8011 30.7173 72.5369C31.1548 72.2727 31.669 72.1449 32.2599 72.1534ZM32.2599 73.0909C31.902 73.0909 31.5795 73.1804 31.2926 73.3594C31.0085 73.5355 30.7827 73.7741 30.6151 74.0753C30.4503 74.3736 30.3679 74.7045 30.3679 75.0682C30.3679 75.4318 30.4474 75.7628 30.6065 76.0611C30.7685 76.3565 30.9886 76.5923 31.267 76.7685C31.5483 76.9418 31.8679 77.0284 32.2259 77.0284C32.4957 77.0284 32.7472 76.9759 32.9801 76.8707C33.2131 76.7628 33.4162 76.6165 33.5895 76.4318C33.7656 76.2443 33.9034 76.0327 34.0028 75.7969C34.1023 75.5582 34.152 75.3097 34.152 75.0511C34.152 74.7102 34.0696 74.3906 33.9048 74.0923C33.7429 73.794 33.5185 73.5526 33.2315 73.3679C32.9474 73.1832 32.6236 73.0909 32.2599 73.0909ZM39.7653 81.1193C39.18 81.1193 38.663 81.0156 38.2141 80.8082C37.7681 80.598 37.4201 80.3097 37.1701 79.9432C36.9201 79.5739 36.7965 79.1534 36.7994 78.6818C36.7965 78.3125 36.869 77.9716 37.0167 77.6591C37.1644 77.3437 37.3661 77.081 37.6218 76.8707C37.8803 76.6577 38.1687 76.5227 38.4869 76.4659V76.4148C38.0692 76.3068 37.7369 76.0724 37.4897 75.7116C37.2425 75.348 37.1204 74.9347 37.1232 74.4716C37.1204 74.0284 37.2326 73.6321 37.4599 73.2827C37.6871 72.9332 37.9996 72.6577 38.3974 72.456C38.7979 72.2543 39.2539 72.1534 39.7653 72.1534C40.271 72.1534 40.7227 72.2543 41.1204 72.456C41.5181 72.6577 41.8306 72.9332 42.0579 73.2827C42.288 73.6321 42.4045 74.0284 42.4073 74.4716C42.4045 74.9347 42.2781 75.348 42.0281 75.7116C41.7809 76.0724 41.4528 76.3068 41.0437 76.4148V76.4659C41.359 76.5227 41.6431 76.6577 41.896 76.8707C42.1488 77.081 42.3505 77.3437 42.5011 77.6591C42.6516 77.9716 42.7283 78.3125 42.7312 78.6818C42.7283 79.1534 42.6005 79.5739 42.3477 79.9432C42.0977 80.3097 41.7496 80.598 41.3036 80.8082C40.8604 81.0156 40.3477 81.1193 39.7653 81.1193ZM39.7653 80.1818C40.1602 80.1818 40.5011 80.1179 40.788 79.9901C41.0749 79.8622 41.2965 79.6818 41.4528 79.4489C41.609 79.2159 41.6886 78.9432 41.6914 78.6307C41.6886 78.3011 41.6033 78.0099 41.4357 77.7571C41.2681 77.5043 41.0394 77.3054 40.7496 77.1605C40.4627 77.0156 40.1346 76.9432 39.7653 76.9432C39.3931 76.9432 39.0607 77.0156 38.7681 77.1605C38.4783 77.3054 38.2496 77.5043 38.082 77.7571C37.9173 78.0099 37.8363 78.3011 37.8391 78.6307C37.8363 78.9432 37.9116 79.2159 38.065 79.4489C38.2212 79.6818 38.4442 79.8622 38.734 79.9901C39.0238 80.1179 39.3675 80.1818 39.7653 80.1818ZM39.7653 76.0398C40.0778 76.0398 40.3548 75.9773 40.5962 75.8523C40.8406 75.7273 41.0323 75.5526 41.1715 75.3281C41.3107 75.1037 41.3817 74.8409 41.3846 74.5398C41.3817 74.2443 41.3121 73.9872 41.1758 73.7685C41.0394 73.5469 40.8505 73.3764 40.609 73.2571C40.3675 73.1349 40.0863 73.0739 39.7653 73.0739C39.4386 73.0739 39.1531 73.1349 38.9087 73.2571C38.6644 73.3764 38.4755 73.5469 38.342 73.7685C38.2085 73.9872 38.1431 74.2443 38.146 74.5398C38.1431 74.8409 38.2099 75.1037 38.3462 75.3281C38.4854 75.5526 38.6772 75.7273 38.9215 75.8523C39.1658 75.9773 39.4471 76.0398 39.7653 76.0398ZM47.3132 81.1193C46.7507 81.1193 46.2493 81.0227 45.8089 80.8295C45.3714 80.6364 45.0234 80.3679 44.7649 80.0241C44.5092 79.6776 44.37 79.2756 44.3473 78.8182H45.4212C45.4439 79.0994 45.5405 79.3423 45.7109 79.5469C45.8814 79.7486 46.1044 79.9048 46.38 80.0156C46.6555 80.1264 46.9609 80.1818 47.2962 80.1818C47.6712 80.1818 48.0036 80.1165 48.2933 79.9858C48.5831 79.8551 48.8104 79.6733 48.9751 79.4403C49.1399 79.2074 49.2223 78.9375 49.2223 78.6307C49.2223 78.3097 49.1428 78.027 48.9837 77.7827C48.8246 77.5355 48.5916 77.3423 48.2848 77.2031C47.978 77.0639 47.603 76.9943 47.1598 76.9943H46.4609V76.0568H47.1598C47.5064 76.0568 47.8104 75.9943 48.0717 75.8693C48.3359 75.7443 48.5419 75.5682 48.6896 75.3409C48.8402 75.1136 48.9155 74.8466 48.9155 74.5398C48.9155 74.2443 48.8501 73.9872 48.7195 73.7685C48.5888 73.5497 48.4041 73.3793 48.1655 73.2571C47.9297 73.1349 47.6513 73.0739 47.3303 73.0739C47.0291 73.0739 46.745 73.1293 46.478 73.2401C46.2138 73.348 45.9979 73.5057 45.8303 73.7131C45.6626 73.9176 45.5717 74.1648 45.5575 74.4545H44.5348C44.5518 73.9972 44.6896 73.5966 44.9482 73.2528C45.2067 72.9062 45.5447 72.6364 45.9624 72.4432C46.3828 72.25 46.8445 72.1534 47.3473 72.1534C47.8871 72.1534 48.3501 72.2628 48.7365 72.4815C49.1229 72.6974 49.4197 72.983 49.6271 73.3381C49.8345 73.6932 49.9382 74.0767 49.9382 74.4886C49.9382 74.9801 49.8089 75.3991 49.5504 75.7457C49.2947 76.0923 48.9467 76.3324 48.5064 76.4659V76.5341C49.0575 76.625 49.4879 76.8594 49.7976 77.2372C50.1072 77.6122 50.2621 78.0767 50.2621 78.6307C50.2621 79.1051 50.1328 79.5312 49.8743 79.9091C49.6186 80.2841 49.2692 80.5795 48.826 80.7955C48.3828 81.0114 47.8786 81.1193 47.3132 81.1193ZM54.7322 81.1193C54.2322 81.1193 53.782 81.0199 53.3814 80.821C52.9808 80.6222 52.6598 80.3494 52.4183 80.0028C52.1768 79.6562 52.0447 79.2614 52.022 78.8182H53.0447C53.0845 79.2131 53.2635 79.5398 53.5817 79.7983C53.9027 80.054 54.2862 80.1818 54.7322 80.1818C55.0902 80.1818 55.4084 80.098 55.6868 79.9304C55.968 79.7628 56.1882 79.5327 56.3473 79.2401C56.5092 78.9446 56.5902 78.6108 56.5902 78.2386C56.5902 77.858 56.5064 77.5185 56.3388 77.2202C56.174 76.919 55.9467 76.6818 55.657 76.5085C55.3672 76.3352 55.0362 76.2472 54.6641 76.2443C54.397 76.2415 54.1229 76.2827 53.8416 76.3679C53.5604 76.4503 53.3288 76.5568 53.147 76.6875L52.1584 76.5682L52.6868 72.2727H57.2209V73.2102H53.5732L53.2663 75.7841H53.3175C53.4964 75.642 53.7209 75.5241 53.9908 75.4304C54.2607 75.3366 54.5419 75.2898 54.8345 75.2898C55.3686 75.2898 55.8445 75.4176 56.2621 75.6733C56.6825 75.9261 57.0121 76.2727 57.2507 76.7131C57.4922 77.1534 57.6129 77.6562 57.6129 78.2216C57.6129 78.7784 57.4879 79.2756 57.2379 79.7131C56.9908 80.1477 56.6499 80.4915 56.2152 80.7443C55.7805 80.9943 55.2862 81.1193 54.7322 81.1193ZM66.4478 76.1676V77.1051H62.6296V76.1676H66.4478ZM74.5241 81.1193C73.9616 81.1193 73.4602 81.0227 73.0199 80.8295C72.5824 80.6364 72.2344 80.3679 71.9759 80.0241C71.7202 79.6776 71.581 79.2756 71.5582 78.8182H72.6321C72.6548 79.0994 72.7514 79.3423 72.9219 79.5469C73.0923 79.7486 73.3153 79.9048 73.5909 80.0156C73.8665 80.1264 74.1719 80.1818 74.5071 80.1818C74.8821 80.1818 75.2145 80.1165 75.5043 79.9858C75.794 79.8551 76.0213 79.6733 76.1861 79.4403C76.3509 79.2074 76.4332 78.9375 76.4332 78.6307C76.4332 78.3097 76.3537 78.027 76.1946 77.7827C76.0355 77.5355 75.8026 77.3423 75.4957 77.2031C75.1889 77.0639 74.8139 76.9943 74.3707 76.9943H73.6719V76.0568H74.3707C74.7173 76.0568 75.0213 75.9943 75.2827 75.8693C75.5469 75.7443 75.7528 75.5682 75.9006 75.3409C76.0511 75.1136 76.1264 74.8466 76.1264 74.5398C76.1264 74.2443 76.0611 73.9872 75.9304 73.7685C75.7997 73.5497 75.6151 73.3793 75.3764 73.2571C75.1406 73.1349 74.8622 73.0739 74.5412 73.0739C74.2401 73.0739 73.956 73.1293 73.6889 73.2401C73.4247 73.348 73.2088 73.5057 73.0412 73.7131C72.8736 73.9176 72.7827 74.1648 72.7685 74.4545H71.7457C71.7628 73.9972 71.9006 73.5966 72.1591 73.2528C72.4176 72.9062 72.7557 72.6364 73.1733 72.4432C73.5938 72.25 74.0554 72.1534 74.5582 72.1534C75.098 72.1534 75.5611 72.2628 75.9474 72.4815C76.3338 72.6974 76.6307 72.983 76.8381 73.3381C77.0455 73.6932 77.1491 74.0767 77.1491 74.4886C77.1491 74.9801 77.0199 75.3991 76.7614 75.7457C76.5057 76.0923 76.1577 76.3324 75.7173 76.4659V76.5341C76.2685 76.625 76.6989 76.8594 77.0085 77.2372C77.3182 77.6122 77.473 78.0767 77.473 78.6307C77.473 79.1051 77.3438 79.5312 77.0852 79.9091C76.8295 80.2841 76.4801 80.5795 76.0369 80.7955C75.5938 81.0114 75.0895 81.1193 74.5241 81.1193ZM79.0114 79.2102V78.3409L82.8466 72.2727H83.4773V73.6193H83.0511L80.1534 78.2045V78.2727H85.3182V79.2102H79.0114ZM83.1193 81V78.946V78.5412V72.2727H84.125V81H83.1193ZM87.1879 81L91.0913 73.2784V73.2102H86.5913V72.2727H92.1822V73.2614L88.2958 81H87.1879ZM96.4808 81.1193C96.1229 81.1136 95.7649 81.0455 95.407 80.9148C95.049 80.7841 94.7223 80.5639 94.4268 80.2543C94.1314 79.9418 93.8942 79.5199 93.7152 78.9886C93.5362 78.4545 93.4467 77.7841 93.4467 76.9773C93.4467 76.2045 93.5192 75.5199 93.6641 74.9233C93.8089 74.3239 94.0192 73.8196 94.2947 73.4105C94.5703 72.9986 94.9027 72.6861 95.2919 72.473C95.6839 72.2599 96.1257 72.1534 96.6172 72.1534C97.1058 72.1534 97.5405 72.2514 97.9212 72.4474C98.3047 72.6406 98.6172 72.9105 98.8587 73.2571C99.1001 73.6037 99.2564 74.0028 99.3274 74.4545H98.2876C98.1911 74.0625 98.0036 73.7372 97.7251 73.4787C97.4467 73.2202 97.0774 73.0909 96.6172 73.0909C95.9411 73.0909 95.4084 73.3849 95.0192 73.973C94.6328 74.5611 94.4382 75.3864 94.4354 76.4489H94.5036C94.6626 76.2074 94.8516 76.0014 95.0703 75.831C95.2919 75.6577 95.5362 75.5241 95.8033 75.4304C96.0703 75.3366 96.353 75.2898 96.6513 75.2898C97.1513 75.2898 97.6087 75.4148 98.0234 75.6648C98.4382 75.9119 98.7706 76.2543 99.0206 76.6918C99.2706 77.1264 99.3956 77.625 99.3956 78.1875C99.3956 78.7273 99.2749 79.2216 99.0334 79.6705C98.7919 80.1165 98.4524 80.4716 98.0149 80.7358C97.5803 80.9972 97.0689 81.125 96.4808 81.1193ZM96.4808 80.1818C96.8388 80.1818 97.1598 80.0923 97.4439 79.9134C97.7308 79.7344 97.9567 79.4943 98.1214 79.1932C98.2891 78.892 98.3729 78.5568 98.3729 78.1875C98.3729 77.8267 98.2919 77.4986 98.13 77.2031C97.9709 76.9048 97.7507 76.6676 97.4695 76.4915C97.1911 76.3153 96.8729 76.2273 96.5149 76.2273C96.245 76.2273 95.9936 76.2812 95.7607 76.3892C95.5277 76.4943 95.3232 76.6392 95.147 76.8239C94.9737 77.0085 94.8374 77.2202 94.7379 77.4588C94.6385 77.6946 94.5888 77.9432 94.5888 78.2045C94.5888 78.5511 94.6697 78.875 94.8317 79.1761C94.9964 79.4773 95.2209 79.7202 95.505 79.9048C95.7919 80.0895 96.1172 80.1818 96.4808 80.1818ZM103.969 81.1193C103.611 81.1136 103.253 81.0455 102.895 80.9148C102.537 80.7841 102.211 80.5639 101.915 80.2543C101.62 79.9418 101.382 79.5199 101.203 78.9886C101.025 78.4545 100.935 77.7841 100.935 76.9773C100.935 76.2045 101.007 75.5199 101.152 74.9233C101.297 74.3239 101.507 73.8196 101.783 73.4105C102.059 72.9986 102.391 72.6861 102.78 72.473C103.172 72.2599 103.614 72.1534 104.105 72.1534C104.594 72.1534 105.029 72.2514 105.409 72.4474C105.793 72.6406 106.105 72.9105 106.347 73.2571C106.588 73.6037 106.745 74.0028 106.816 74.4545H105.776C105.679 74.0625 105.492 73.7372 105.213 73.4787C104.935 73.2202 104.566 73.0909 104.105 73.0909C103.429 73.0909 102.897 73.3849 102.507 73.973C102.121 74.5611 101.926 75.3864 101.924 76.4489H101.992C102.151 76.2074 102.34 76.0014 102.559 75.831C102.78 75.6577 103.025 75.5241 103.292 75.4304C103.559 75.3366 103.841 75.2898 104.14 75.2898C104.64 75.2898 105.097 75.4148 105.512 75.6648C105.926 75.9119 106.259 76.2543 106.509 76.6918C106.759 77.1264 106.884 77.625 106.884 78.1875C106.884 78.7273 106.763 79.2216 106.522 79.6705C106.28 80.1165 105.941 80.4716 105.503 80.7358C105.069 80.9972 104.557 81.125 103.969 81.1193ZM103.969 80.1818C104.327 80.1818 104.648 80.0923 104.932 79.9134C105.219 79.7344 105.445 79.4943 105.61 79.1932C105.777 78.892 105.861 78.5568 105.861 78.1875C105.861 77.8267 105.78 77.4986 105.618 77.2031C105.459 76.9048 105.239 76.6676 104.958 76.4915C104.679 76.3153 104.361 76.2273 104.003 76.2273C103.733 76.2273 103.482 76.2812 103.249 76.3892C103.016 76.4943 102.811 76.6392 102.635 76.8239C102.462 77.0085 102.326 77.2202 102.226 77.4588C102.127 77.6946 102.077 77.9432 102.077 78.2045C102.077 78.5511 102.158 78.875 102.32 79.1761C102.485 79.4773 102.709 79.7202 102.993 79.9048C103.28 80.0895 103.605 80.1818 103.969 80.1818Z" fill="black"/>
<path d="M26.8523 96.1193C26.2898 96.1193 25.7884 96.0227 25.348 95.8295C24.9105 95.6364 24.5625 95.3679 24.304 95.0241C24.0483 94.6776 23.9091 94.2756 23.8864 93.8182H24.9602C24.983 94.0994 25.0795 94.3423 25.25 94.5469C25.4205 94.7486 25.6435 94.9048 25.919 95.0156C26.1946 95.1264 26.5 95.1818 26.8352 95.1818C27.2102 95.1818 27.5426 95.1165 27.8324 94.9858C28.1222 94.8551 28.3494 94.6733 28.5142 94.4403C28.679 94.2074 28.7614 93.9375 28.7614 93.6307C28.7614 93.3097 28.6818 93.027 28.5227 92.7827C28.3636 92.5355 28.1307 92.3423 27.8239 92.2031C27.517 92.0639 27.142 91.9943 26.6989 91.9943H26V91.0568H26.6989C27.0455 91.0568 27.3494 90.9943 27.6108 90.8693C27.875 90.7443 28.081 90.5682 28.2287 90.3409C28.3793 90.1136 28.4545 89.8466 28.4545 89.5398C28.4545 89.2443 28.3892 88.9872 28.2585 88.7685C28.1278 88.5497 27.9432 88.3793 27.7045 88.2571C27.4688 88.1349 27.1903 88.0739 26.8693 88.0739C26.5682 88.0739 26.2841 88.1293 26.017 88.2401C25.7528 88.348 25.5369 88.5057 25.3693 88.7131C25.2017 88.9176 25.1108 89.1648 25.0966 89.4545H24.0739C24.0909 88.9972 24.2287 88.5966 24.4872 88.2528C24.7457 87.9062 25.0838 87.6364 25.5014 87.4432C25.9219 87.25 26.3835 87.1534 26.8864 87.1534C27.4261 87.1534 27.8892 87.2628 28.2756 87.4815C28.6619 87.6974 28.9588 87.983 29.1662 88.3381C29.3736 88.6932 29.4773 89.0767 29.4773 89.4886C29.4773 89.9801 29.348 90.3991 29.0895 90.7457C28.8338 91.0923 28.4858 91.3324 28.0455 91.4659V91.5341C28.5966 91.625 29.027 91.8594 29.3366 92.2372C29.6463 92.6122 29.8011 93.0767 29.8011 93.6307C29.8011 94.1051 29.6719 94.5312 29.4134 94.9091C29.1577 95.2841 28.8082 95.5795 28.3651 95.7955C27.9219 96.0114 27.4176 96.1193 26.8523 96.1193ZM31.3395 94.2102V93.3409L35.1747 87.2727H35.8054V88.6193H35.3793L32.4815 93.2045V93.2727H37.6463V94.2102H31.3395ZM35.4474 96V93.946V93.5412V87.2727H36.4531V96H35.4474ZM39.516 96L43.4194 88.2784V88.2102H38.9194V87.2727H44.5103V88.2614L40.6239 96H39.516ZM48.8089 96.1193C48.451 96.1136 48.093 96.0455 47.7351 95.9148C47.3771 95.7841 47.0504 95.5639 46.755 95.2543C46.4595 94.9418 46.2223 94.5199 46.0433 93.9886C45.8643 93.4545 45.7749 92.7841 45.7749 91.9773C45.7749 91.2045 45.8473 90.5199 45.9922 89.9233C46.1371 89.3239 46.3473 88.8196 46.6229 88.4105C46.8984 87.9986 47.2308 87.6861 47.62 87.473C48.0121 87.2599 48.4538 87.1534 48.9453 87.1534C49.4339 87.1534 49.8686 87.2514 50.2493 87.4474C50.6328 87.6406 50.9453 87.9105 51.1868 88.2571C51.4283 88.6037 51.5845 89.0028 51.6555 89.4545H50.6158C50.5192 89.0625 50.3317 88.7372 50.0533 88.4787C49.7749 88.2202 49.4055 88.0909 48.9453 88.0909C48.2692 88.0909 47.7365 88.3849 47.3473 88.973C46.9609 89.5611 46.7663 90.3864 46.7635 91.4489H46.8317C46.9908 91.2074 47.1797 91.0014 47.3984 90.831C47.62 90.6577 47.8643 90.5241 48.1314 90.4304C48.3984 90.3366 48.6811 90.2898 48.9794 90.2898C49.4794 90.2898 49.9368 90.4148 50.3516 90.6648C50.7663 90.9119 51.0987 91.2543 51.3487 91.6918C51.5987 92.1264 51.7237 92.625 51.7237 93.1875C51.7237 93.7273 51.603 94.2216 51.3615 94.6705C51.12 95.1165 50.7805 95.4716 50.343 95.7358C49.9084 95.9972 49.397 96.125 48.8089 96.1193ZM48.8089 95.1818C49.1669 95.1818 49.4879 95.0923 49.772 94.9134C50.0589 94.7344 50.2848 94.4943 50.4496 94.1932C50.6172 93.892 50.701 93.5568 50.701 93.1875C50.701 92.8267 50.62 92.4986 50.4581 92.2031C50.299 91.9048 50.0788 91.6676 49.7976 91.4915C49.5192 91.3153 49.201 91.2273 48.843 91.2273C48.5732 91.2273 48.3217 91.2812 48.0888 91.3892C47.8558 91.4943 47.6513 91.6392 47.4751 91.8239C47.3018 92.0085 47.1655 92.2202 47.0661 92.4588C46.9666 92.6946 46.9169 92.9432 46.9169 93.2045C46.9169 93.5511 46.9979 93.875 47.1598 94.1761C47.3246 94.4773 47.549 94.7202 47.8331 94.9048C48.12 95.0895 48.4453 95.1818 48.8089 95.1818ZM56.2972 96.1193C55.9393 96.1136 55.5813 96.0455 55.2234 95.9148C54.8654 95.7841 54.5387 95.5639 54.2433 95.2543C53.9478 94.9418 53.7106 94.5199 53.5316 93.9886C53.3526 93.4545 53.2631 92.7841 53.2631 91.9773C53.2631 91.2045 53.3356 90.5199 53.4805 89.9233C53.6254 89.3239 53.8356 88.8196 54.1112 88.4105C54.3867 87.9986 54.7191 87.6861 55.1083 87.473C55.5004 87.2599 55.9421 87.1534 56.4336 87.1534C56.9222 87.1534 57.3569 87.2514 57.7376 87.4474C58.1211 87.6406 58.4336 87.9105 58.6751 88.2571C58.9165 88.6037 59.0728 89.0028 59.1438 89.4545H58.104C58.0075 89.0625 57.82 88.7372 57.5415 88.4787C57.2631 88.2202 56.8938 88.0909 56.4336 88.0909C55.7575 88.0909 55.2248 88.3849 54.8356 88.973C54.4492 89.5611 54.2546 90.3864 54.2518 91.4489H54.32C54.479 91.2074 54.668 91.0014 54.8867 90.831C55.1083 90.6577 55.3526 90.5241 55.6197 90.4304C55.8867 90.3366 56.1694 90.2898 56.4677 90.2898C56.9677 90.2898 57.4251 90.4148 57.8398 90.6648C58.2546 90.9119 58.587 91.2543 58.837 91.6918C59.087 92.1264 59.212 92.625 59.212 93.1875C59.212 93.7273 59.0913 94.2216 58.8498 94.6705C58.6083 95.1165 58.2688 95.4716 57.8313 95.7358C57.3967 95.9972 56.8853 96.125 56.2972 96.1193ZM56.2972 95.1818C56.6552 95.1818 56.9762 95.0923 57.2603 94.9134C57.5472 94.7344 57.7731 94.4943 57.9379 94.1932C58.1055 93.892 58.1893 93.5568 58.1893 93.1875C58.1893 92.8267 58.1083 92.4986 57.9464 92.2031C57.7873 91.9048 57.5671 91.6676 57.2859 91.4915C57.0075 91.3153 56.6893 91.2273 56.3313 91.2273C56.0614 91.2273 55.81 91.2812 55.5771 91.3892C55.3441 91.4943 55.1396 91.6392 54.9634 91.8239C54.7901 92.0085 54.6538 92.2202 54.5543 92.4588C54.4549 92.6946 54.4052 92.9432 54.4052 93.2045C54.4052 93.5511 54.4862 93.875 54.6481 94.1761C54.8129 94.4773 55.0373 94.7202 55.3214 94.9048C55.6083 95.0895 55.9336 95.1818 56.2972 95.1818ZM68.0298 91.1676V92.1051H64.2116V91.1676H68.0298ZM76.2255 87.2727V96H75.1687V88.3807H75.1175L72.9869 89.7955V88.7216L75.1687 87.2727H76.2255ZM78.5309 94.2102V93.3409L82.3661 87.2727H82.9968V88.6193H82.5707L79.6729 93.2045V93.2727H84.8377V94.2102H78.5309ZM82.6388 96V93.946V93.5412V87.2727H83.6445V96H82.6388ZM89.2301 96.1193C88.6449 96.1193 88.1278 96.0156 87.679 95.8082C87.233 95.598 86.8849 95.3097 86.6349 94.9432C86.3849 94.5739 86.2614 94.1534 86.2642 93.6818C86.2614 93.3125 86.3338 92.9716 86.4815 92.6591C86.6293 92.3437 86.831 92.081 87.0866 91.8707C87.3452 91.6577 87.6335 91.5227 87.9517 91.4659V91.4148C87.5341 91.3068 87.2017 91.0724 86.9545 90.7116C86.7074 90.348 86.5852 89.9347 86.5881 89.4716C86.5852 89.0284 86.6974 88.6321 86.9247 88.2827C87.152 87.9332 87.4645 87.6577 87.8622 87.456C88.2628 87.2543 88.7188 87.1534 89.2301 87.1534C89.7358 87.1534 90.1875 87.2543 90.5852 87.456C90.983 87.6577 91.2955 87.9332 91.5227 88.2827C91.7528 88.6321 91.8693 89.0284 91.8722 89.4716C91.8693 89.9347 91.7429 90.348 91.4929 90.7116C91.2457 91.0724 90.9176 91.3068 90.5085 91.4148V91.4659C90.8239 91.5227 91.108 91.6577 91.3608 91.8707C91.6136 92.081 91.8153 92.3437 91.9659 92.6591C92.1165 92.9716 92.1932 93.3125 92.196 93.6818C92.1932 94.1534 92.0653 94.5739 91.8125 94.9432C91.5625 95.3097 91.2145 95.598 90.7685 95.8082C90.3253 96.0156 89.8125 96.1193 89.2301 96.1193ZM89.2301 95.1818C89.625 95.1818 89.9659 95.1179 90.2528 94.9901C90.5398 94.8622 90.7614 94.6818 90.9176 94.4489C91.0739 94.2159 91.1534 93.9432 91.1562 93.6307C91.1534 93.3011 91.0682 93.0099 90.9006 92.7571C90.733 92.5043 90.5043 92.3054 90.2145 92.1605C89.9276 92.0156 89.5994 91.9432 89.2301 91.9432C88.858 91.9432 88.5256 92.0156 88.233 92.1605C87.9432 92.3054 87.7145 92.5043 87.5469 92.7571C87.3821 93.0099 87.3011 93.3011 87.304 93.6307C87.3011 93.9432 87.3764 94.2159 87.5298 94.4489C87.6861 94.6818 87.9091 94.8622 88.1989 94.9901C88.4886 95.1179 88.8324 95.1818 89.2301 95.1818ZM89.2301 91.0398C89.5426 91.0398 89.8196 90.9773 90.0611 90.8523C90.3054 90.7273 90.4972 90.5526 90.6364 90.3281C90.7756 90.1037 90.8466 89.8409 90.8494 89.5398C90.8466 89.2443 90.777 88.9872 90.6406 88.7685C90.5043 88.5469 90.3153 88.3764 90.0739 88.2571C89.8324 88.1349 89.5511 88.0739 89.2301 88.0739C88.9034 88.0739 88.6179 88.1349 88.3736 88.2571C88.1293 88.3764 87.9403 88.5469 87.8068 88.7685C87.6733 88.9872 87.608 89.2443 87.6108 89.5398C87.608 89.8409 87.6747 90.1037 87.8111 90.3281C87.9503 90.5526 88.142 90.7273 88.3864 90.8523C88.6307 90.9773 88.9119 91.0398 89.2301 91.0398ZM96.6758 96.1193C96.0337 96.1193 95.4869 95.9446 95.0352 95.5952C94.5835 95.2429 94.2383 94.733 93.9996 94.0653C93.761 93.3949 93.6417 92.5852 93.6417 91.6364C93.6417 90.6932 93.761 89.8878 93.9996 89.2202C94.2411 88.5497 94.5877 88.0384 95.0394 87.6861C95.494 87.331 96.0394 87.1534 96.6758 87.1534C97.3121 87.1534 97.8562 87.331 98.3079 87.6861C98.7624 88.0384 99.109 88.5497 99.3477 89.2202C99.5891 89.8878 99.7099 90.6932 99.7099 91.6364C99.7099 92.5852 99.5906 93.3949 99.3519 94.0653C99.1133 94.733 98.7681 95.2429 98.3164 95.5952C97.8647 95.9446 97.3178 96.1193 96.6758 96.1193ZM96.6758 95.1818C97.3121 95.1818 97.8065 94.875 98.1587 94.2614C98.511 93.6477 98.6871 92.7727 98.6871 91.6364C98.6871 90.8807 98.6062 90.2372 98.4442 89.706C98.2852 89.1747 98.055 88.7699 97.7539 88.4915C97.4556 88.2131 97.0962 88.0739 96.6758 88.0739C96.0451 88.0739 95.5522 88.3849 95.1971 89.0071C94.842 89.6264 94.6644 90.5028 94.6644 91.6364C94.6644 92.392 94.744 93.0341 94.9031 93.5625C95.0621 94.0909 95.2908 94.4929 95.5891 94.7685C95.8903 95.044 96.2525 95.1818 96.6758 95.1818ZM104.227 96.1193C103.869 96.1136 103.511 96.0455 103.153 95.9148C102.795 95.7841 102.468 95.5639 102.173 95.2543C101.877 94.9418 101.64 94.5199 101.461 93.9886C101.282 93.4545 101.193 92.7841 101.193 91.9773C101.193 91.2045 101.265 90.5199 101.41 89.9233C101.555 89.3239 101.765 88.8196 102.041 88.4105C102.316 87.9986 102.649 87.6861 103.038 87.473C103.43 87.2599 103.872 87.1534 104.363 87.1534C104.852 87.1534 105.287 87.2514 105.667 87.4474C106.051 87.6406 106.363 87.9105 106.605 88.2571C106.846 88.6037 107.002 89.0028 107.074 89.4545H106.034C105.937 89.0625 105.75 88.7372 105.471 88.4787C105.193 88.2202 104.824 88.0909 104.363 88.0909C103.687 88.0909 103.154 88.3849 102.765 88.973C102.379 89.5611 102.184 90.3864 102.181 91.4489H102.25C102.409 91.2074 102.598 91.0014 102.816 90.831C103.038 90.6577 103.282 90.5241 103.549 90.4304C103.816 90.3366 104.099 90.2898 104.397 90.2898C104.897 90.2898 105.355 90.4148 105.77 90.6648C106.184 90.9119 106.517 91.2543 106.767 91.6918C107.017 92.1264 107.142 92.625 107.142 93.1875C107.142 93.7273 107.021 94.2216 106.779 94.6705C106.538 95.1165 106.199 95.4716 105.761 95.7358C105.326 95.9972 104.815 96.125 104.227 96.1193ZM104.227 95.1818C104.585 95.1818 104.906 95.0923 105.19 94.9134C105.477 94.7344 105.703 94.4943 105.868 94.1932C106.035 93.892 106.119 93.5568 106.119 93.1875C106.119 92.8267 106.038 92.4986 105.876 92.2031C105.717 91.9048 105.497 91.6676 105.216 91.4915C104.937 91.3153 104.619 91.2273 104.261 91.2273C103.991 91.2273 103.74 91.2812 103.507 91.3892C103.274 91.4943 103.069 91.6392 102.893 91.8239C102.72 92.0085 102.583 92.2202 102.484 92.4588C102.385 92.6946 102.335 92.9432 102.335 93.2045C102.335 93.5511 102.416 93.875 102.578 94.1761C102.743 94.4773 102.967 94.7202 103.251 94.9048C103.538 95.0895 103.863 95.1818 104.227 95.1818ZM111.596 87.1534C111.954 87.1562 112.312 87.2244 112.67 87.358C113.028 87.4915 113.354 87.7131 113.65 88.0227C113.945 88.3295 114.183 88.7486 114.362 89.2798C114.54 89.8111 114.63 90.4773 114.63 91.2784C114.63 92.054 114.556 92.7429 114.408 93.3452C114.263 93.9446 114.053 94.4503 113.778 94.8622C113.505 95.2741 113.173 95.5866 112.781 95.7997C112.391 96.0128 111.951 96.1193 111.46 96.1193C110.971 96.1193 110.535 96.0227 110.151 95.8295C109.771 95.6335 109.458 95.3622 109.214 95.0156C108.972 94.6662 108.817 94.2614 108.749 93.8011H109.789C109.883 94.2017 110.069 94.5327 110.347 94.794C110.629 95.0526 110.999 95.1818 111.46 95.1818C112.133 95.1818 112.664 94.8878 113.053 94.2997C113.445 93.7116 113.641 92.8807 113.641 91.8068H113.573C113.414 92.0455 113.225 92.2514 113.006 92.4247C112.788 92.598 112.545 92.7315 112.278 92.8253C112.011 92.919 111.727 92.9659 111.425 92.9659C110.925 92.9659 110.467 92.8423 110.049 92.5952C109.634 92.3452 109.302 92.0028 109.052 91.5682C108.805 91.1307 108.681 90.6307 108.681 90.0682C108.681 89.5341 108.8 89.0455 109.039 88.6023C109.281 88.1562 109.619 87.8011 110.053 87.5369C110.491 87.2727 111.005 87.1449 111.596 87.1534ZM111.596 88.0909C111.238 88.0909 110.915 88.1804 110.629 88.3594C110.344 88.5355 110.119 88.7741 109.951 89.0753C109.786 89.3736 109.704 89.7045 109.704 90.0682C109.704 90.4318 109.783 90.7628 109.942 91.0611C110.104 91.3565 110.325 91.5923 110.603 91.7685C110.884 91.9418 111.204 92.0284 111.562 92.0284C111.832 92.0284 112.083 91.9759 112.316 91.8707C112.549 91.7628 112.752 91.6165 112.925 91.4318C113.102 91.2443 113.239 91.0327 113.339 90.7969C113.438 90.5582 113.488 90.3097 113.488 90.0511C113.488 89.7102 113.406 89.3906 113.241 89.0923C113.079 88.794 112.854 88.5526 112.567 88.3679C112.283 88.1832 111.96 88.0909 111.596 88.0909Z" fill="black"/>
<rect x="4" y="23" width="13" height="12" fill="#F6D5D5"/>
<rect x="4" y="39" width="13" height="12" fill="#F0A2A2"/>
<rect x="4" y="54" width="13" height="12" fill="#EB6E6E"/>
<rect x="4" y="70" width="13" height="12" fill="#E53B3B"/>
<rect x="4" y="86" width="13" height="12" fill="#DF0707"/>
</svg>
